<?xml version="1.0" standalone="no"?>
<!DOCTYPE svg PUBLIC "-//W3C//DTD SVG 20010904//EN"
 "http://www.w3.org/TR/2001/REC-SVG-20010904/DTD/svg10.dtd">
<svg version="1.0" xmlns="http://www.w3.org/2000/svg"
 width="400.000000pt" height="400.000000pt" viewBox="0 0 400.000000 400.000000"
 preserveAspectRatio="xMidYMid meet">
<metadata>
Created by potrace 1.16, written by Peter Selinger 2001-2019
</metadata>
<g transform="translate(0.000000,400.000000) scale(0.100000,-0.100000)"
fill="#000000" stroke="none">
<path d="M2095 3789 c-69 -11 -144 -26 -185 -37 -46 -12 -242 -105 -282 -134
-74 -52 -185 -143 -210 -170 -41 -47 -94 -156 -113 -235 -24 -99 -17 -312 11
-360 13 -23 25 -31 39 -28 11 2 23 4 28 4 4 1 7 7 7 15 0 8 6 16 13 19 6 2 9
8 5 12 -5 5 -18 0 -30 -11 -13 -11 -18 -12 -11 -3 9 11 9 19 2 26 -8 8 -7 17
1 33 13 25 10 30 -18 33 -16 1 -19 4 -10 15 9 10 13 11 19 0 6 -10 13 -10 26
-2 21 13 29 36 12 33 -8 -1 -18 -1 -24 0 -14 2 -17 59 -3 67 7 5 9 0 6 -14 -4
-12 -2 -24 2 -27 11 -7 22 28 14 48 -4 12 -1 14 15 10 16 -4 19 -1 14 15 -3
13 -11 18 -19 15 -8 -3 -14 -1 -14 5 0 6 12 9 26 7 18 -2 24 1 20 12 -3 8 -6
19 -6 24 0 4 -7 6 -15 3 -21 -9 -19 9 5 29 11 9 20 14 20 11 0 -3 15 11 34 31
20 21 32 43 29 51 -4 10 2 14 21 14 14 0 26 5 26 10 0 6 -4 10 -10 10 -5 0
-10 5 -10 10 0 15 30 12 31 -2 0 -7 5 -1 11 15 5 15 13 27 17 27 4 0 8 16 9
35 1 26 11 45 42 76 23 24 46 39 54 36 8 -3 33 0 57 8 34 10 43 17 41 31 -2
13 0 15 5 7 10 -13 55 -14 64 0 3 4 32 11 65 14 32 3 65 11 73 17 8 6 36 11
63 12 29 0 53 6 58 13 4 8 10 9 14 3 8 -13 95 -12 103 1 3 6 2 7 -4 4 -6 -4
-19 0 -29 8 -18 14 -17 15 9 11 15 -3 34 -12 43 -20 8 -9 22 -16 29 -16 20 0
30 21 14 31 -10 7 -5 8 14 5 24 -4 27 -3 16 10 -14 17 -12 19 18 28 12 4 24 2
28 -3 3 -6 21 -18 40 -27 19 -9 35 -20 35 -25 0 -5 7 -6 15 -3 12 5 13 10 4
20 -6 8 -15 14 -20 14 -4 0 -20 11 -35 25 l-27 25 30 -6 c17 -3 33 -2 37 4 10
17 -22 35 -64 36 -22 0 -40 4 -40 7 0 12 -54 27 -115 34 -33 3 -67 8 -75 9 -8
2 -37 0 -65 -5z"/>
<path d="M1808 2954 c-26 -30 -40 -82 -18 -69 5 3 23 8 40 10 16 3 43 7 60 9
16 3 32 0 35 -5 4 -5 -1 -9 -10 -9 -9 0 -14 -4 -11 -9 7 -11 -27 -18 -129 -27
-43 -4 -97 -12 -119 -19 -37 -11 -41 -15 -44 -49 -2 -20 -7 -34 -11 -31 -10 5
-157 -18 -220 -35 -27 -7 -45 -18 -48 -30 -3 -12 -11 -17 -21 -13 -10 4 -2 -8
16 -26 27 -26 36 -30 48 -20 8 6 14 8 14 3 0 -5 5 -2 10 6 7 12 12 12 22 2 13
-13 29 -16 26 -4 -1 4 1 21 4 38 7 30 11 32 65 40 79 12 117 11 125 -1 4 -5 8
-26 8 -45 0 -50 11 -110 20 -110 4 0 7 35 6 78 -2 156 43 192 260 208 54 4
104 3 120 -3 38 -13 59 -6 43 13 -9 11 -8 14 7 14 50 0 221 -37 212 -45 -2 -2
-28 2 -58 10 -56 15 -120 20 -120 9 0 -3 7 -12 15 -20 8 -9 15 -11 15 -5 0 6
7 11 15 11 8 0 15 -5 15 -10 0 -6 11 -8 25 -4 20 5 32 -1 60 -29 30 -30 35
-42 35 -80 0 -64 -35 -169 -73 -219 -19 -25 -54 -54 -82 -68 -47 -23 -60 -25
-205 -25 -146 0 -157 1 -194 24 -27 17 -46 40 -63 78 -29 64 -43 63 -19 0 36
-95 91 -119 283 -125 79 -2 140 -8 138 -13 -8 -12 10 -19 25 -8 13 8 13 10 0
19 -12 8 -11 10 8 10 34 0 104 58 148 122 21 32 46 60 55 63 10 3 19 21 23 44
7 43 26 64 50 55 9 -3 50 -52 91 -108 41 -55 84 -110 96 -122 25 -26 100 -44
180 -44 52 0 59 -2 59 -20 0 -11 6 -20 14 -20 8 0 16 -6 19 -12 2 -7 7 1 11
18 4 19 18 37 37 48 43 25 31 29 -37 11 -94 -25 -224 -5 -277 43 -11 9 -31 40
-44 67 -24 48 -25 49 -4 31 l22 -20 -15 30 c-9 16 -12 30 -7 32 5 2 32 -8 60
-21 40 -18 65 -23 109 -20 83 5 82 5 82 24 0 30 40 88 56 82 7 -3 11 -10 8
-15 -4 -6 3 -5 15 1 23 13 28 45 10 57 -7 4 -16 -1 -22 -11 -9 -17 -11 -16
-27 5 -15 20 -30 24 -111 31 -110 9 -99 7 -99 19 0 6 10 10 23 10 12 0 29 5
37 10 33 22 -39 9 -117 -21 -15 -5 -23 -17 -23 -31 0 -23 -32 -52 -44 -41 -10
10 -7 35 3 29 11 -7 21 17 21 50 0 20 10 29 54 49 30 14 66 25 79 25 22 0 61
29 41 31 -5 0 0 4 11 9 11 5 55 9 98 9 62 1 77 4 77 16 0 21 -47 64 -78 72
-37 9 -215 -2 -240 -16 -17 -9 -22 -9 -22 1 0 8 -5 6 -11 -5 -6 -9 -14 -15
-19 -12 -11 7 -71 -20 -97 -44 -12 -12 -27 -21 -33 -21 -5 0 -10 -7 -10 -15 0
-9 -9 -15 -22 -14 -13 0 -17 3 -10 6 21 8 13 23 -13 23 -15 0 -28 7 -32 18 -7
18 -51 56 -68 58 -5 0 -17 3 -25 7 -28 10 -95 20 -150 21 -30 1 -60 4 -67 9
-6 4 -33 3 -58 -3 -25 -6 -52 -7 -58 -3 -25 16 -53 8 -79 -23z"/>
<path d="M2107 2793 c5 -14 1 -15 -36 -10 -35 4 -40 3 -30 -9 6 -8 18 -14 25
-14 8 0 14 -4 14 -9 0 -12 -52 -21 -126 -21 -36 0 -64 -4 -64 -10 0 -5 7 -10
15 -10 20 0 19 -16 -1 -24 -10 -4 -14 -15 -12 -33 2 -22 10 -29 33 -34 17 -4
22 -7 13 -8 -10 0 -18 -5 -18 -11 0 -5 8 -10 18 -10 15 -1 15 -2 -3 -16 -36
-29 84 -10 146 22 l54 28 -40 7 c-35 5 -33 6 23 8 60 1 63 0 62 -21 -3 -36 -1
-41 14 -29 10 8 16 9 21 1 3 -5 15 -10 26 -10 11 0 19 -7 20 -17 0 -15 2 -15
8 2 10 24 3 45 -14 45 -21 0 -36 25 -23 38 8 8 7 15 -5 26 -8 9 -18 30 -22 46
-4 17 -15 36 -26 43 -10 6 -19 17 -19 24 0 17 -20 17 -20 1 0 -7 -5 -5 -11 5
-13 22 -30 22 -22 0z"/>
<path d="M1350 2533 c-63 -25 -76 -126 -22 -161 15 -9 33 -25 40 -35 15 -20
63 -20 69 0 3 7 -7 23 -21 36 -28 26 -33 58 -16 103 8 21 7 31 -6 45 -18 20
-21 21 -44 12z"/>
<path d="M1454 2388 c4 -29 9 -74 12 -100 4 -32 2 -48 -5 -48 -6 0 -11 -5 -11
-11 0 -7 -8 -18 -17 -25 -22 -16 -1 -19 27 -4 17 9 19 6 19 -47 0 -32 5 -83
11 -113 6 -30 16 -82 21 -115 6 -33 15 -62 19 -65 13 -9 49 -94 52 -125 2 -22
9 -31 25 -33 15 -2 29 -20 48 -60 15 -31 32 -60 39 -64 7 -5 3 -8 -9 -8 -15 0
-17 -2 -6 -9 8 -5 11 -16 8 -25 -4 -10 -1 -19 8 -22 25 -10 17 -25 -10 -20
-17 3 -25 0 -25 -10 0 -16 -26 -19 -35 -4 -4 6 -14 9 -23 8 -11 -2 -17 3 -16
14 1 10 -3 15 -8 12 -25 -16 -78 65 -78 120 0 40 -7 47 -38 39 -28 -7 -38 -47
-21 -81 8 -15 107 -121 221 -237 113 -115 224 -232 246 -260 21 -27 59 -69 84
-91 25 -23 48 -49 51 -58 4 -9 18 -21 31 -26 14 -5 42 -24 63 -43 55 -48 120
-97 128 -97 10 0 54 -47 49 -52 -1 -2 8 -5 20 -6 13 -1 26 4 29 12 6 16 89 38
111 30 9 -3 23 1 31 10 27 26 55 20 55 -11 0 -24 6 -19 43 39 23 37 48 67 55
68 7 0 12 14 12 35 0 18 7 60 15 92 20 72 31 263 16 263 -6 0 -11 12 -11 26 0
22 -2 25 -15 14 -13 -11 -15 -8 -15 13 0 26 -19 49 -21 25 0 -7 -4 -4 -8 7 -8
19 9 50 19 36 3 -3 16 -12 30 -20 24 -14 24 -14 -3 18 -34 41 -34 57 3 128 35
68 71 168 73 203 1 14 8 29 15 33 6 4 12 14 12 21 0 8 7 19 15 26 9 7 14 19
11 27 -3 7 0 13 6 13 6 0 9 3 6 6 -4 4 9 72 22 109 0 1 -9 1 -20 1 -11 0 -20
-7 -20 -16 -1 -17 -59 -130 -59 -115 -1 6 6 32 14 59 23 76 19 176 -7 176 -6
0 -5 -6 2 -15 8 -9 8 -15 2 -15 -6 0 -17 7 -26 15 -8 8 -18 15 -23 15 -5 0
-24 13 -43 30 -19 16 -40 29 -46 30 -6 0 -19 9 -29 20 -10 11 -24 20 -32 20
-26 0 -13 25 24 45 48 26 80 85 61 114 -7 11 -18 23 -25 25 -16 6 -76 -18 -92
-38 -7 -8 -33 -24 -59 -36 -25 -12 -52 -30 -59 -39 -15 -19 -17 -61 -3 -61 6
0 10 5 10 10 0 6 7 10 15 10 14 0 18 -10 13 -27 -4 -12 -58 -15 -58 -4 0 6 -9
11 -20 11 -14 0 -18 5 -13 17 4 11 3 14 -5 9 -7 -4 -12 -13 -12 -21 0 -10 -9
-13 -33 -10 -28 4 -36 0 -50 -24 -13 -22 -22 -27 -41 -24 -28 6 -43 -12 -26
-32 10 -12 9 -15 -4 -15 -9 0 -16 5 -16 10 0 6 -4 10 -10 10 -14 0 -12 -26 3
-39 8 -6 17 -7 23 -2 32 32 348 18 432 -19 28 -13 52 -30 52 -37 0 -15 -21
-17 -35 -5 -36 31 -128 33 -182 3 -17 -8 -33 -8 -66 1 -39 10 -47 9 -62 -5 -9
-9 -28 -17 -41 -17 -14 0 -22 -4 -19 -10 4 -6 -6 -10 -22 -10 -27 1 -27 1 -9
15 11 8 17 17 14 20 -2 3 -17 -9 -32 -26 -19 -21 -33 -28 -44 -24 -9 4 -42 11
-72 15 -30 5 -69 12 -87 15 -26 6 -34 3 -48 -18 -10 -16 -14 -34 -9 -51 6 -24
7 -25 34 -11 16 8 30 20 32 27 4 10 14 9 43 -5 32 -15 40 -16 59 -4 17 11 44
12 136 6 139 -10 133 -10 298 -6 128 4 132 3 132 -17 0 -32 -42 -74 -91 -91
-73 -26 -119 -34 -226 -36 -116 -3 -166 -18 -156 -46 9 -26 40 -54 66 -58 64
-13 78 -18 74 -28 -2 -7 -10 -12 -18 -12 -8 -1 -25 -7 -38 -14 -19 -11 -25
-11 -32 0 -5 8 -9 18 -9 22 0 5 -5 5 -10 2 -6 -4 -8 -10 -5 -15 8 -13 -21 -6
-39 9 -9 7 -16 10 -16 5 0 -5 -6 -2 -13 6 -17 20 -53 40 -74 40 -15 0 -16 2
-3 10 13 9 12 13 -9 30 -13 11 -34 20 -47 20 -13 0 -24 5 -24 11 0 6 -6 9 -13
6 -7 -3 -30 3 -50 13 -20 10 -35 15 -32 10 3 -5 -14 -8 -37 -7 -40 2 -43 4
-48 35 -3 18 -9 31 -15 30 -5 -2 -11 7 -13 20 -2 12 -9 22 -15 22 -7 0 -24 14
-39 30 -14 17 -24 30 -22 30 13 0 -33 53 -51 60 -13 5 -25 20 -28 37 -3 16
-19 36 -36 48 -22 14 -31 28 -31 48 0 15 -13 51 -30 80 -16 30 -30 66 -30 80
0 15 -4 27 -8 27 -5 0 -19 32 -32 70 -13 39 -25 70 -28 70 -2 0 -1 -24 2 -52z
m1174 -1121 c43 -94 35 -130 -10 -41 -12 25 -26 48 -30 50 -7 5 -12 -29 -10
-66 0 -12 -2 -11 -13 3 -12 17 -13 17 -19 0 -4 -10 -2 -19 3 -21 24 -8 10 -29
-16 -26 l-28 4 28 -11 c15 -6 27 -17 27 -25 0 -9 -5 -12 -10 -9 -15 9 -51 -4
-49 -18 4 -32 -2 -58 -11 -52 -6 4 -8 15 -5 25 4 13 1 17 -12 16 -15 -1 -17 6
-15 33 3 42 10 51 22 31 13 -20 13 -3 0 20 -8 15 -7 18 3 14 7 -2 21 4 32 15
14 16 15 24 6 35 -13 16 1 30 29 31 8 0 19 10 24 21 13 30 31 20 54 -29z"/>
<path d="M2239 2320 c-41 -22 -53 -43 -39 -70 7 -14 5 -19 -10 -23 -31 -8 -23
-25 15 -33 23 -4 47 0 74 12 52 24 52 38 1 30 -22 -3 -40 -2 -40 3 0 13 90 44
128 43 29 -1 32 1 20 15 -15 19 -70 43 -95 43 -10 -1 -34 -10 -54 -20z"/>
</g>
</svg>
